<svg width="131" height="123" viewBox="0 0 131 123" fill="none" xmlns="http://www.w3.org/2000/svg">
<g id="blocitem1" filter="url(#filter0_d_0_19)">
<path d="M4 15C4 6.71573 10.7157 0 19 0H112C120.284 0 127 6.71573 127 15V100C127 108.284 120.284 115 112 115H19C10.7157 115 4 108.284 4 100V15Z" fill="#317AC1"/>
<path d="M5.5 15C5.5 7.54416 11.5442 1.5 19 1.5H112C119.456 1.5 125.5 7.54416 125.5 15V100C125.5 107.456 119.456 113.5 112 113.5H19C11.5442 113.5 5.5 107.456 5.5 100V15Z" stroke="black" stroke-width="3"/>
</g>
<defs>
<filter id="filter0_d_0_19" x="0" y="0" width="131" height="123" filterUnits="userSpaceOnUse" color-interpolation-filters="sRGB">
<feFlood flood-opacity="0" result="BackgroundImageFix"/>
<feColorMatrix in="SourceAlpha" type="matrix" values="0 0 0 0 0 0 0 0 0 0 0 0 0 0 0 0 0 0 127 0" result="hardAlpha"/>
<feOffset dy="4"/>
<feGaussianBlur stdDeviation="2"/>
<feComposite in2="hardAlpha" operator="out"/>
<feColorMatrix type="matrix" values="0 0 0 0 0 0 0 0 0 0 0 0 0 0 0 0 0 0 0.25 0"/>
<feBlend mode="normal" in2="BackgroundImageFix" result="effect1_dropShadow_0_19"/>
<feBlend mode="normal" in="SourceGraphic" in2="effect1_dropShadow_0_19" result="shape"/>
</filter>
</defs>
</svg>
